<svg width="87" height="87" viewBox="0 0 87 87" fill="none" xmlns="http://www.w3.org/2000/svg">
<path d="M43.5 81.2C64.3211 81.2 81.2 64.3211 81.2 43.5C81.2 22.6789 64.3211 5.8 43.5 5.8C22.6789 5.8 5.8 22.6789 5.8 43.5C5.8 64.3211 22.6789 81.2 43.5 81.2Z" fill="#13818D"/>
<mask id="mask0_28_64" style="mask-type:luminance" maskUnits="userSpaceOnUse" x="5" y="5" width="77" height="77">
<path d="M43.5 81.2C64.3211 81.2 81.2 64.3211 81.2 43.5C81.2 22.6789 64.3211 5.8 43.5 5.8C22.6789 5.8 5.8 22.6789 5.8 43.5C5.8 64.3211 22.6789 81.2 43.5 81.2Z" fill="white"/>
</mask>
<g mask="url(#mask0_28_64)">
<path d="M11.1998 48.5924L43.2738 19.72L78.4276 49.88C78.4276 49.88 62.8082 64.8034 43.2332 64.8034C21.489 64.7976 11.1998 48.5924 11.1998 48.5924Z" fill="#30A7AD"/>
<path d="M-24.6616 62.4254L7.41821 33.5414L42.572 63.7014C42.572 63.7014 26.9526 78.6248 7.37761 78.6248C-14.3666 78.6306 -24.6616 62.4254 -24.6616 62.4254Z" fill="#44C2C7"/>
<path d="M48.6852 60.4012L80.765 31.5172L115.919 61.6772C115.919 61.6772 100.299 76.6006 80.7244 76.6006C58.9802 76.6122 48.6852 60.4012 48.6852 60.4012Z" fill="#44C2C7"/>
<path d="M43.1346 45.4952V37.3056L61.3814 30.682L41.4642 26.1V26.941V45.4314L14.297 69.8842C14.297 69.8842 23.2638 84.0072 42.2008 84.0072C59.2528 84.0072 72.8596 71.0094 72.8596 71.0094L43.1346 45.4952Z" fill="white"/>
</g>
</svg>
